<?xml version="1.0" encoding="UTF-8" standalone="no"?>
<!-- Created with Inkscape (http://www.inkscape.org/) -->

<svg
   xmlns:dc="http://purl.org/dc/elements/1.1/"
   xmlns:cc="http://creativecommons.org/ns#"
   xmlns:rdf="http://www.w3.org/1999/02/22-rdf-syntax-ns#"
   xmlns:svg="http://www.w3.org/2000/svg"
   xmlns="http://www.w3.org/2000/svg"
   xmlns:xlink="http://www.w3.org/1999/xlink"
   xmlns:sodipodi="http://sodipodi.sourceforge.net/DTD/sodipodi-0.dtd"
   xmlns:inkscape="http://www.inkscape.org/namespaces/inkscape"
   width="200mm"
   height="200mm"
   viewBox="0 0 200 200"
   version="1.1"
   id="svg8"
   inkscape:version="0.92.4 5da689c313, 2019-01-14"
   sodipodi:docname="linkedin.svg">
  <defs
     id="defs2">
    <inkscape:path-effect
       effect="mirror_symmetry"
       start_point="377.95276,116.73622"
       end_point="377.95276,651.29473"
       center_point="377.95276,377.95276"
       id="path-effect951"
       is_visible="true"
       mode="X"
       discard_orig_path="false"
       fuse_paths="false"
       oposite_fuse="false" />
    <inkscape:path-effect
       effect="ellipse_5pts"
       id="path-effect945"
       is_visible="true" />
    <inkscape:path-effect
       effect="bspline"
       id="path-effect925"
       is_visible="true"
       weight="33.333333"
       steps="2"
       helper_size="0"
       apply_no_weight="true"
       apply_with_weight="true"
       only_selected="false" />
    <inkscape:path-effect
       effect="bspline"
       id="path-effect1001"
       is_visible="true"
       weight="33.333333"
       steps="2"
       helper_size="0"
       apply_no_weight="true"
       apply_with_weight="true"
       only_selected="false" />
    <path
       inkscape:connector-curvature="0"
       d="M 95,48 H 73 V 23 L 49.71,0.3 C 49.53,0.11 49.28,0 49,0 48.45,0 48,0.45 48,1 V 23 H 23 L 0.3,46.29 C 0.11,46.47 0,46.72 0,47 c 0,0.55 0.45,1 1,1 h 22 v 25 l 23.29,22.7 c 0.18,0.19 0.43,0.3 0.71,0.3 0.55,0 1,-0.45 1,-1 V 73 H 73 L 95.7,49.71 C 95.89,49.53 96,49.28 96,49 96,48.45 95.55,48 95,48 Z"
       id="path2" />
    <defs
       id="defs4">
      <path
         id="path1215"
         d="M 95,48 H 73 V 23 L 49.71,0.3 C 49.53,0.11 49.28,0 49,0 48.45,0 48,0.45 48,1 V 23 H 23 L 0.3,46.29 C 0.11,46.47 0,46.72 0,47 c 0,0.55 0.45,1 1,1 h 22 v 25 l 23.29,22.7 c 0.18,0.19 0.43,0.3 0.71,0.3 0.55,0 1,-0.45 1,-1 V 73 H 73 L 95.7,49.71 C 95.89,49.53 96,49.28 96,49 96,48.45 95.55,48 95,48 Z"
         inkscape:connector-curvature="0" />
    </defs>
    <clipPath
       id="clipPath8">
      <use
         id="use6"
         xlink:href="#SVGID_63_"
         overflow="visible"
         style="overflow:visible"
         x="0"
         y="0"
         width="100%"
         height="100%" />
    </clipPath>
    <radialGradient
       id="radialGradient74"
       r="77.190002"
       cx="22.860001"
       cy="23"
       gradientUnits="userSpaceOnUse">
      <stop
         id="stop70"
         offset="0"
         stop-color="#fff" />
      <stop
         id="stop72"
         offset="1"
         stop-opacity="0"
         stop-color="#fff" />
    </radialGradient>
    <inkscape:path-effect
       effect="bspline"
       id="path-effect925-7"
       is_visible="true"
       weight="33.333333"
       steps="2"
       helper_size="0"
       apply_no_weight="true"
       apply_with_weight="true"
       only_selected="false" />
  </defs>
  <sodipodi:namedview
     id="base"
     pagecolor="#000000"
     bordercolor="#66f266"
     borderopacity="1"
     inkscape:pageopacity="0"
     inkscape:pageshadow="2"
     inkscape:zoom="0.7071068"
     inkscape:cx="172.01977"
     inkscape:cy="325.40669"
     inkscape:document-units="mm"
     inkscape:current-layer="layer1"
     showgrid="false"
     inkscape:pagecheckerboard="true"
     inkscape:window-width="1920"
     inkscape:window-height="1050"
     inkscape:window-x="0"
     inkscape:window-y="0"
     inkscape:window-maximized="1"
     showguides="false"
     inkscape:guide-bbox="true"
     inkscape:snap-global="true"
     inkscape:snap-object-midpoints="true"
     showborder="true"
     inkscape:object-nodes="true"
     inkscape:object-paths="false"
     inkscape:snap-smooth-nodes="true" />
  <metadata
     id="metadata5">
    <rdf:RDF>
      <cc:Work
         rdf:about="">
        <dc:format>image/svg+xml</dc:format>
        <dc:type
           rdf:resource="http://purl.org/dc/dcmitype/StillImage" />
        <dc:title />
      </cc:Work>
    </rdf:RDF>
  </metadata>
  <g
     inkscape:label="Layer 1"
     inkscape:groupmode="layer"
     id="layer1"
     transform="translate(0,-97)">
    <path
       style="opacity:1;fill:#ffffff;fill-opacity:1;stroke:none;stroke-width:0.12591927;stroke-linecap:butt;stroke-linejoin:miter;stroke-miterlimit:4;stroke-dasharray:none;stroke-dashoffset:0;stroke-opacity:1"
       d="M 60.851562 4.8222656 C 30.869578 4.8222656 6.7324219 28.959435 6.7324219 58.941406 L 6.7324219 696.14453 C 6.7324219 726.1265 30.869578 750.26562 60.851562 750.26562 L 698.05664 750.26562 C 728.03869 750.26562 752.17578 726.1265 752.17578 696.14453 L 752.17578 58.941406 C 752.17578 28.959435 728.03869 4.8222656 698.05664 4.8222656 L 60.851562 4.8222656 z M 209.36523 145.58984 C 223.39653 145.58984 234.74572 150.12991 243.41211 159.20898 C 252.49119 167.87538 257.0293 178.81165 257.0293 192.01758 C 257.0293 205.22351 252.49119 216.15978 243.41211 224.82617 C 234.74572 233.07988 223.39653 237.20703 209.36523 237.20703 C 195.33393 237.20703 183.98475 233.07988 175.31836 224.82617 C 166.65197 216.15978 162.31836 205.22351 162.31836 192.01758 C 162.31836 178.81165 166.65197 167.87538 175.31836 159.20898 C 183.98475 150.12991 195.33393 145.58984 209.36523 145.58984 z M 526.23047 268.77734 C 557.59455 268.77734 581.73615 277.85552 598.65625 296.01367 C 615.98903 313.75914 624.6543 340.58466 624.6543 376.48828 L 624.6543 538.05273 L 659.93945 539.91016 L 659.93945 589.43359 L 512.61133 589.43359 L 512.61133 542.38672 L 533.03906 540.5293 C 539.22934 539.70393 543.76941 538.05424 546.6582 535.57812 C 549.547 532.68933 550.99023 527.5299 550.99023 520.10156 L 550.99023 392.58203 C 550.99023 369.88434 547.48245 353.17122 540.4668 342.44141 C 533.45115 331.2989 520.03936 325.72656 500.23047 325.72656 C 480.83426 325.72656 465.35792 331.91827 453.80273 344.29883 C 442.24755 356.67939 436.4707 371.32795 436.4707 388.24805 L 436.4707 538.05273 L 471.75586 539.91016 L 471.75586 589.43359 L 324.42578 589.43359 L 324.42578 542.38672 L 344.85352 540.5293 C 351.04379 539.70393 355.58386 538.05424 358.47266 535.57812 C 361.36145 532.68933 362.80664 527.5299 362.80664 520.10156 L 362.80664 348.63086 C 362.80664 336.2503 357.64721 329.85409 347.33008 329.44141 L 321.33203 327.58398 L 321.33203 278.0625 L 425.94727 278.0625 L 425.94727 318.29883 C 436.67708 303.02947 450.91469 291.06092 468.66016 282.39453 C 486.40562 273.31546 505.5962 268.77734 526.23047 268.77734 z M 142.50977 278.0625 L 253.31641 278.0625 L 253.31641 538.05273 L 288.59961 539.91016 L 288.59961 589.43359 L 141.27148 589.43359 L 141.27148 542.38672 L 161.69922 540.5293 C 173.66709 539.29124 179.65234 532.68858 179.65234 520.7207 L 179.65234 348.63086 C 179.65234 341.61521 178.41361 336.86869 175.9375 334.39258 C 173.87407 331.91647 169.95338 330.67969 164.17578 330.67969 L 142.50977 329.44141 L 142.50977 278.0625 z "
       transform="matrix(0.26458333,0,0,0.26458333,0,97)"
       id="rect969" />
  </g>
</svg>
